<?xml version="1.0" encoding="UTF-8"?>
<svg id="Camada_2" data-name="Camada 2" xmlns="http://www.w3.org/2000/svg" xmlns:xlink="http://www.w3.org/1999/xlink" viewBox="0 0 46.11 40.47">
  <defs>
    <style>
      .cls-1 {
        fill: url(#Gradiente_sem_nome_6);
        stroke-width: 0px;
      }
    </style>
    <linearGradient id="Gradiente_sem_nome_6" data-name="Gradiente sem nome 6" x1="-3.92" y1="35.82" x2="42.75" y2="8.87" gradientUnits="userSpaceOnUse">
      <stop offset="0" stop-color="#4d0053"/>
      <stop offset=".14" stop-color="#4f0455"/>
      <stop offset=".29" stop-color="#55105d"/>
      <stop offset=".43" stop-color="#61246a"/>
      <stop offset=".58" stop-color="#70407c"/>
      <stop offset=".73" stop-color="#846593"/>
      <stop offset=".87" stop-color="#9c91af"/>
      <stop offset="1" stop-color="#b6bfcd"/>
    </linearGradient>
  </defs>
  <g id="Camada_1-2" data-name="Camada 1">
    <path class="cls-1" d="M11.33,32.25H3.39c-1.87,0-3.39-1.38-3.39-3.08v-13.54c0-1.7,1.52-3.08,3.39-3.08h39.33c1.87,0,3.39,1.38,3.39,3.08v13.54c0,1.7-1.52,3.08-3.39,3.08h-7.94v-8.9c0-1.7-1.52-3.08-3.39-3.08H14.72c-1.87,0-3.39,1.38-3.39,3.08v8.9ZM33.23,37.27v-12.28c0-1.76-1.38-3.19-3.08-3.19h-14.2c-1.7,0-3.08,1.43-3.08,3.19v12.28c0,1.76,1.38,3.19,3.08,3.19h14.2c1.7,0,3.08-1.43,3.08-3.19ZM26.27,35.25v1.28h-10.71v-1.28h10.71ZM30.55,31.91v1.28h-15v-1.28h15ZM30.55,28.58v1.28h-15v-1.28h15ZM30.55,25.24v1.28h-15v-1.28h15ZM30.15,0h-14.2c-1.7,0-3.08,1.52-3.08,3.38v7.92h20.36V3.38c0-1.87-1.38-3.38-3.08-3.38Z"/>
  </g>
</svg>