<?xml version="1.0" encoding="UTF-8"?>
<svg id="Camada_2" data-name="Camada 2" xmlns="http://www.w3.org/2000/svg" viewBox="0 0 248.42 188.55">
  <defs>
    <style>
      .cls-1 {
        fill: #ff3e00;
      }

      .cls-1, .cls-2, .cls-3, .cls-4, .cls-5, .cls-6, .cls-7, .cls-8, .cls-9, .cls-10, .cls-11 {
        stroke-width: 0px;
      }

      .cls-2 {
        fill: #000;
      }

      .cls-3 {
        fill: #fff5dd;
      }

      .cls-4 {
        fill: #4d0053;
      }

      .cls-5 {
        fill: #73f1ff;
      }

      .cls-6 {
        fill: #b6bfcd;
      }

      .cls-7 {
        fill: #ffb9a3;
      }

      .cls-8 {
        fill: #6c4272;
      }

      .cls-9 {
        fill: #3ed0e3;
      }

      .cls-10 {
        fill: #ffbab1;
      }

      .cls-11 {
        fill: #2ea5ff;
      }
    </style>
  </defs>
  <g id="Camada_1-2" data-name="Camada 1">
    <g>
      <path class="cls-8" d="M207.99,83.45c3.64-6.89,10.59-19.4,12.44-18.66,1.84.74-2.3,13.76-2.3,13.76l-10.13,4.9Z"/>
      <path class="cls-7" d="M153.36,100.72l21.02,34.84s28.3-42.01,33.6-52.1c5.3-10.09,33.82-21.23,35.28-19.64,1.46,1.59-15.2,9.44-15.2,9.44,0,0,15.88-5.9,17.47-3.22,1.58,2.69-15.6,7.42-15.6,7.42,0,0,18.25-2.63,18.48-.26.23,2.36-17.67,4.45-17.67,4.45,0,0,15.7,1.21,15.34,3.35-.37,2.14-13.42.28-15.93,1.27s1.88,7.89-9.59,13.99c0,0-3.92,55.71-32.45,74.23s-52.73-29.02-52.73-29.02l17.98-44.75Z"/>
      <path class="cls-8" d="M153.36,100.72l21.02,34.84s28.3-42.01,33.6-52.1c5.3-10.09,33.82-21.23,35.28-19.64,1.46,1.59-15.2,9.44-15.2,9.44,0,0,15.88-5.9,17.47-3.22,1.58,2.69-15.6,7.42-15.6,7.42,0,0,18.25-2.63,18.48-.26.23,2.36-17.67,4.45-17.67,4.45,0,0,15.7,1.21,15.34,3.35-.37,2.14-13.42.28-15.93,1.27s1.88,7.89-9.59,13.99c0,0-3.92,55.71-32.45,74.23s-52.73-29.02-52.73-29.02l17.98-44.75Z"/>
      <path class="cls-4" d="M194.81,169.07l-20.43-33.51-28.96,25.09c9.68,12.02,25.51,25.27,42.69,13.85,2.72-1.81,5.19-3.94,6.7-5.42Z"/>
      <path class="cls-2" d="M137.13,81.98l.35.13c12.31,4.56,22.05,14.23,26.7,26.51l10.2,26.94-34.16,34.21-11.64-27.09,8.55-60.7Z"/>
      <path class="cls-11" d="M129.68,188.55l-.81-27.45,1.01-1.25c13.31-16.41,20.97-36.68,21.85-57.8.39-9.27-5.66-17.59-14.59-20.08l-46.16-12.89c-11.15-3.11-23.05-2.13-33.53,2.77l-12.81,80.82-5.61,35.87h90.66Z"/>
      <polygon class="cls-2" points="76.17 106.69 44.14 152.6 48.43 126.37 76.17 106.69"/>
      <path class="cls-5" d="M154.88,30.8c2.54,13.65-18.33,18.87-18.33,18.87l-29.27.59-3.78-14.73s-8.93-15.42-4.1-24.28c4.82-8.86,11.56-1.43,11.56-1.43,0,0,.77-9.35,13.71-9.82,1.77-.07,3.56.2,5.36.76,2.59.8,5.18,2.17,7.66,3.97,8.39,6.09,15.5,16.96,17.2,26.06Z"/>
      <path class="cls-8" d="M99.5,71.47l10.45-28.48s-4.52-25.62,8.09-28.61c12.61-2.99,27.95-.26,28.77,12.05.54,8.17-1.51,17.33-4.17,25.65-2.66,8.32-5.81,12.95-7.52,13.18-1.61.22-4.4-1.34-4.4-1.34l-.18,16.22s1.96,1.62-8.76.81c-13.18-1.01-22.29-9.47-22.29-9.47Z"/>
      <path class="cls-5" d="M117.31,41.11s6.98.39,8.34-9.14c0,0,18.44,5.05,23.41-4.07,0,0-3.44-21.32-25.71-17.44-22.27,3.89-15.68,21.07-15.68,21.07l9.65,9.58Z"/>
      <path class="cls-2" d="M130.73,63.92c-7.28-3.79-14.29-11.94-16.4-16.48,0,0-1.02,10.43,16.39,23.5v-7.02Z"/>
      <g>
        <path class="cls-2" d="M138.84,41.71c-.26,1.46.33,2.8,1.34,2.98,1,.18,2.03-.86,2.29-2.32.26-1.46-.33-2.8-1.34-2.98s-2.03.86-2.29,2.32Z"/>
        <path class="cls-2" d="M128.49,39.25c-.27,1.46.33,2.8,1.34,2.98s2.03-.86,2.29-2.32c.26-1.46-.33-2.8-1.34-2.98-1-.18-2.03.86-2.29,2.32Z"/>
        <path class="cls-4" d="M134.32,49.34c-.28,0-.52-.21-.55-.5-.03-.3.19-.57.49-.6.55-.06,2.04-.39,2.34-1.26.26-.77-.75-4.91-1.88-8.46-.09-.29.07-.6.36-.69.29-.09.6.07.69.36.4,1.26,2.38,7.65,1.87,9.15-.58,1.72-3.16,1.99-3.27,2-.02,0-.04,0-.05,0Z"/>
        <path class="cls-4" d="M130.12,54.41c-.14,0-.28-.05-.39-.16-1.77-1.8-2.05-4.86-.64-6.95.12-.18.35-.27.57-.23.22.05.39.22.43.44.31,1.71,1.55,3.23,3.17,3.86.28.11.42.43.31.71-.11.28-.43.42-.71.31-1.5-.59-2.74-1.8-3.4-3.26-.4,1.5-.02,3.25,1.06,4.35.21.22.21.56,0,.78-.11.11-.25.16-.39.16Z"/>
      </g>
      <path class="cls-10" d="M113.2,39.84c-.58,2.98-3.47,4.93-6.45,4.36-2.98-.58-4.93-3.47-4.36-6.45.58-2.98,3.47-4.93,6.45-4.36,2.98.58,4.93,3.47,4.36,6.45Z"/>
      <path class="cls-4" d="M126.44,44.69c-.29,1.48-1.72,2.44-3.19,2.16-1.48-.29-2.44-1.72-2.16-3.19.29-1.48,1.72-2.44,3.19-2.16,1.48.29,2.44,1.72,2.16,3.19Z"/>
      <path class="cls-4" d="M144.34,46.28c-.14-.06-.29-.1-.45-.14-1.48-.29-2.91.68-3.19,2.16-.28,1.47.67,2.89,2.13,3.19.54-1.71,1.04-3.45,1.51-5.21Z"/>
      <path class="cls-9" d="M8.28,96.32l49.16-24.46c9.62-4.78,21.29-1,26.28,8.51h0c4.59,8.75,2,19.55-6.06,25.27l-44,31.22-25.37-40.53Z"/>
      <path class="cls-1" d="M119.69,36.79c.04,5.57-4.44,10.13-10.01,10.17-5.57.04-10.13-4.44-10.17-10.01-.04-5.57,4.44-10.13,10.01-10.17,5.57-.04,10.13,4.44,10.17,10.01Z"/>
      <path class="cls-8" d="M0,123.41c.07-9.78,7.73-17.81,17.5-18.35,25.21-1.39,61.73-4.32,68.54-3.76,15.33,1.26,35.76,32.27,34.4,34.49-1.36,2.22-15.96-14.54-15.96-14.54,0,0,12.08,16.49,9.48,19.21-2.6,2.72-13.75-15.66-13.75-15.66,0,0,9.05,20.31,6.38,21.35-2.67,1.04-10.98-19.04-10.98-19.04,0,0,3.76,18.62,1.16,18.9-2.6.28-4.74-15.48-6.71-18.06-1.97-2.59-8.63,2.62-16.46-4.89,0,0-24.98,9.98-49.22,18.05C12.33,145.13-.09,136.12,0,123.41H0Z"/>
      <polygon class="cls-3" points="95.94 70.48 105.03 56.41 122.35 77.85 130.71 70.94 133.43 80.95 126.99 89.93 121.89 82.81 107.54 88.16 95.94 70.48"/>
      <path class="cls-4" d="M10.41,125.79c-.81-5.07-3.71-9.27-7.67-11.91C1.03,116.66.03,119.92,0,123.41H0c-.05,6.32,3,11.72,7.56,15.06,2.44-3.59,3.58-8.07,2.85-12.69Z"/>
      <path class="cls-2" d="M128.49,32.6c.32-1.89,6.41-2.32,6.4.74-.01,3.06-6.8,1.63-6.4-.74Z"/>
      <path class="cls-2" d="M138.3,34.28c-.49-2.84,6.12-2.26,6.08.52-.04,2.78-5.66,1.92-6.08-.52Z"/>
      <path class="cls-1" d="M137.67,4.74c-4.64,2.51-17.38,10.8-22.34,28.42l-8.14-2.68c5.39-19.4,15.9-27.26,22.82-29.71,2.59.8,5.18,2.17,7.66,3.97Z"/>
      <polygon class="cls-6" points="20.63 47.8 21.73 55.79 28.51 60.16 20.52 61.26 16.15 68.03 15.05 60.04 8.28 55.68 16.26 54.58 20.63 47.8"/>
      <polygon class="cls-6" points="170.44 21.53 175.91 27.46 183.97 27.16 178.04 32.63 178.33 40.69 172.86 34.76 164.81 35.06 170.73 29.59 170.44 21.53"/>
      <polygon class="cls-6" points="11.71 163.96 14.38 166.93 18.15 166.95 15.49 169.47 15.79 173.37 13.11 170.4 9.34 170.38 12.01 167.85 11.71 163.96"/>
      <g>
        <path class="cls-4" d="M27.08,0h35.33c10.22,0,18.51,8.29,18.51,18.51h0c0,10.23-8.29,18.51-18.51,18.51h-.7l.24,1.3c.67,3.58,3.16,6.55,6.58,7.81l-6.24-.57c-3.25-.29-6.18-2.11-7.89-4.89l-2.24-3.65h-25.08c-10.22,0-18.51-8.29-18.51-18.51h0C8.57,8.29,16.86,0,27.08,0Z"/>
        <path class="cls-9" d="M59.44,13.29c2.68,0,4.84,2.17,4.84,4.84s-2.17,4.85-4.84,4.85-4.84-2.17-4.84-4.85,2.17-4.84,4.84-4.84ZM39.9,18.13c0,2.68,2.17,4.85,4.84,4.85s4.84-2.17,4.84-4.85-2.17-4.84-4.84-4.84-4.84,2.17-4.84,4.84ZM30.04,13.29c-2.68,0-4.84,2.17-4.84,4.84s2.17,4.85,4.84,4.85,4.84-2.17,4.84-4.85-2.17-4.84-4.84-4.84Z"/>
      </g>
      <g>
        <polygon class="cls-11" points="207.94 9.33 193.82 45.87 199.23 47.96 214.16 9.33 207.94 9.33"/>
        <path class="cls-2" d="M181.05,70.39c-15.54,2.43-21.72.92-21.72.92l-1.87-12s5.43-3.31,20.97-5.74l2.63,16.82Z"/>
        <path class="cls-11" d="M178.15,51.82c17.36-2.71,24.3-.81,24.3-.81l2.26,14.5s-6.03,3.92-23.39,6.63l-3.17-20.32Z"/>
        <path class="cls-9" d="M197.09,45.37h0c-2.77-1.07-5.88.31-6.95,3.08l-3.8,9.83c-1.07,2.77.31,5.88,3.08,6.95h0c2.77,1.07,5.88-.31,6.95-3.08l3.8-9.83c1.07-2.77-.31-5.88-3.08-6.95Z"/>
        <path class="cls-3" d="M193.42,60.84c.43-1.11-.12-2.35-1.23-2.78-1.11-.43-2.35.12-2.78,1.23-.43,1.11.12,2.35,1.23,2.78,1.11.43,2.35-.12,2.78-1.23Z"/>
      </g>
    </g>
  </g>
</svg>