<?xml version="1.0" encoding="UTF-8"?>
<svg id="Camada_2" data-name="Camada 2" xmlns="http://www.w3.org/2000/svg" viewBox="0 0 233.34 196.1">
  <defs>
    <style>
      .cls-1 {
        fill: #27c1c9;
      }

      .cls-1, .cls-2, .cls-3, .cls-4, .cls-5, .cls-6, .cls-7, .cls-8, .cls-9, .cls-10, .cls-11, .cls-12, .cls-13 {
        stroke-width: 0px;
      }

      .cls-2 {
        fill: #ff7bac;
      }

      .cls-3 {
        fill: #3aa5aa;
      }

      .cls-4 {
        fill: #000;
      }

      .cls-5 {
        fill: #fff5dd;
      }

      .cls-6 {
        fill: #4d0053;
      }

      .cls-7 {
        fill: #73f1ff;
      }

      .cls-8 {
        fill: #b6bfcd;
      }

      .cls-9 {
        fill: #ffb9a3;
      }

      .cls-10 {
        fill: #3ed0e3;
      }

      .cls-11 {
        fill: #2ea5ff;
      }

      .cls-12 {
        fill: #fff;
      }

      .cls-13 {
        fill: #e6e6e6;
      }
    </style>
  </defs>
  <g id="Camada_1-2" data-name="Camada 1">
    <g>
      <g>
        <polygon class="cls-11" points="6.21 14.64 20.33 51.18 14.93 53.27 0 14.64 6.21 14.64"/>
        <path class="cls-4" d="M33.1,75.7c15.54,2.43,21.72.92,21.72.92l1.87-12s-5.43-3.31-20.97-5.74l-2.63,16.82Z"/>
        <path class="cls-11" d="M36,57.13c-17.36-2.71-24.3-.81-24.3-.81l-2.26,14.5s6.03,3.92,23.39,6.63l3.17-20.32Z"/>
        <path class="cls-10" d="M17.07,50.68h0c2.77-1.07,5.88.31,6.95,3.08l3.8,9.83c1.07,2.77-.31,5.88-3.08,6.95h0c-2.77,1.07-5.88-.31-6.95-3.08l-3.8-9.83c-1.07-2.77.31-5.88,3.08-6.95Z"/>
        <path class="cls-5" d="M20.74,66.16c-.43-1.11.12-2.35,1.23-2.78,1.11-.43,2.35.12,2.78,1.23.43,1.11-.12,2.35-1.23,2.78-1.11.43-2.35-.12-2.78-1.23Z"/>
      </g>
      <path class="cls-7" d="M74.77,66.16L12.96,117.57c-12.57,10.46-13.39,29.47-1.77,40.97h0c8.27,8.18,20.76,10.32,31.28,5.36l38.1-17.95-16.11-30.1,38.82-29.18-28.51-20.51Z"/>
      <path class="cls-1" d="M61.65,119.52l-27.66,20.79-30.72,5.01c.8,5.46,3.3,10.72,7.55,14.93h0c7.89,7.8,19.81,9.85,29.85,5.12l36.36-17.13-15.38-28.73h0Z"/>
      <path class="cls-2" d="M79.11,90.76l-7.74-30.42c-1.34-5.28,2.33-10.52,7.76-11.05h0c4.64-.46,8.14-4.42,8.03-9.08l-.27-10.89c-.14-5.75,5.13-10.12,10.75-8.92l39.09,8.32c7.49,1.59,12.89,8.14,13.04,15.8h0c.11,5.78,3.25,11.09,8.27,13.97l2.27,1.31c6.26,3.6,9.45,10.86,7.87,17.91l-3.22,14.29-85.84-1.23Z"/>
      <path class="cls-7" d="M95.53,50.97l5.49,17.66c2.84,9.14,12.39,14.4,21.63,11.91h0c9.49-2.55,15.11-12.3,12.58-21.79l-4.78-17.88c-2.6-9.74-12.77-15.38-22.42-12.43l-.71.22c-9.43,2.89-14.72,12.89-11.79,22.31Z"/>
      <path class="cls-7" d="M131.32,51l5.04-1.44,7.76,36.97c1.4,6.67-2.9,13.19-9.58,14.54h0c-6.55,1.32-12.94-2.85-14.39-9.37l-3.46-15.65,14.63-25.05Z"/>
      <circle class="cls-2" cx="149.42" cy="19.83" r="19.82" transform="translate(95.52 160.59) rotate(-76.61)"/>
      <path class="cls-2" d="M134.92,51.93c-5.14.27-10.34-1.25-14.65-4.27-4.3-3.02-7.48-7.42-9.3-12.57-4.13,7.89-11.62,13.66-19.91,15.34-1.21-5.67,1.61-13.12,5.51-17.17,3.9-4.04,9.22-6.22,14.58-7.11,3.99-.66,8.22-.63,11.9,1.13,4.17,2,7.25,6.04,9.19,10.48,1.94,4.44,1.77,9.36,2.68,14.16Z"/>
      <path class="cls-3" d="M111.54,66.44c-.56,0-1.1-.18-1.56-.51-.61-.45-.99-1.13-1.06-1.88l-.33-3.68c-.03-.32.21-.6.52-.63.31-.04.6.21.63.52l.33,3.68c.04.42.25.8.59,1.06.34.25.77.34,1.19.25.31-.06.62.13.68.44.07.31-.13.62-.44.69-.18.04-.37.06-.55.06Z"/>
      <path class="cls-3" d="M102,63.55c-1.1,1.32-.92,3.28.4,4.38,1.32,1.1,3.28.92,4.38-.4,1.1-1.32.92-3.28-.4-4.38-1.32-1.1-3.28-.92-4.38.4Z"/>
      <path class="cls-3" d="M117.94,58.51c-1.1,1.32-.92,3.28.4,4.38,1.32,1.1,3.28.92,4.38-.4,1.1-1.32.92-3.28-.4-4.38s-3.28-.92-4.38.4Z"/>
      <path class="cls-3" d="M116.66,72.52c-.17,0-.34-.07-.45-.22-.2-.25-.16-.61.09-.81,1.04-.83,1.67-2.17,1.64-3.5-.02-.91-.43-1.86-1.12-2.64-.43,2.34-2.05,4.46-4.23,5.41-.29.12-.63,0-.76-.3-.13-.29,0-.63.3-.76,2.14-.93,3.65-3.21,3.65-5.55,0-.22.12-.41.32-.51.19-.1.43-.08.6.05,1.46,1.07,2.36,2.67,2.39,4.27.04,1.68-.76,3.38-2.07,4.42-.11.08-.23.13-.36.13Z"/>
      <path class="cls-4" d="M103.29,61.42c-.87,0-1.74-.25-2.48-.74-.27-.17-.34-.53-.17-.8.18-.27.53-.34.8-.16.75.49,1.71.67,2.59.47.87-.2,1.67-.78,2.13-1.54.16-.27.52-.36.79-.2.27.16.36.52.2.79-.63,1.05-1.67,1.8-2.86,2.07-.33.08-.66.11-.99.11Z"/>
      <path class="cls-4" d="M114.44,58.31c-1.03,0-2.05-.33-2.88-.96-.25-.19-.3-.55-.11-.81.19-.25.56-.3.81-.11.84.63,1.95.87,2.98.63,1.01-.24,1.93-.96,2.39-1.89.14-.29.49-.4.77-.26.29.14.4.49.26.77-.62,1.25-1.8,2.18-3.16,2.49-.35.08-.7.12-1.06.12Z"/>
      <path class="cls-4" d="M116.82,51.36c-.66-2.33-7.47-2.34-7,.88.47,3.21,7.69,1.54,7-.88Z"/>
      <path class="cls-4" d="M99.49,55.51c-.47-2.67,6.39-6.03,7.49-2.55,1.1,3.47-7,5.33-7.49,2.55Z"/>
      <path class="cls-4" d="M122.66,80.55h0c-1.62.43-3.24.62-4.84.6l.71,3.23c.94-.1,1.89-.25,2.83-.5,6.3-1.7,10.89-6.58,12.52-12.44-2.21,4.33-6.16,7.76-11.22,9.12Z"/>
      <path class="cls-4" d="M109.36,93.05l22.97-3.65-44.25,70.57-23.62-44.12,20.59-13.43c7.35-4.8,15.64-7.99,24.31-9.37Z"/>
      <path class="cls-6" d="M114.16,92.28l49.84-7.93,9.89,111.74h-94.73l22.9-92.69c1.43-5.8,6.2-10.18,12.11-11.12Z"/>
      <path class="cls-5" d="M169.03,141.26l.49,5.57h-78.2l1.38-5.57h76.33ZM170.61,159.11l-.49-5.57h-80.45l-1.38,5.57h82.32ZM95.73,128.98l-1.38,5.57h74.08l-.49-5.57h-72.21Z"/>
      <path class="cls-6" d="M147.35,102.89l1.74,59.98,48.08-3.21-14.16-61.36c-2.13-9.23-11.02-15.24-20.37-13.79h0c-9,1.39-15.56,9.27-15.3,18.38Z"/>
      <polygon class="cls-7" points="60.91 162.88 75.92 167.76 61.98 170.57 60.91 162.88"/>
      <polygon class="cls-13" points="67.65 191.59 56.84 153.82 31.52 155.38 42.33 193.14 67.65 191.59"/>
      <path class="cls-7" d="M73.37,167.93l117.9-7.88,1.06,8.34c1.86,14.7-9.6,27.7-24.42,27.7H35.31c-1.36,0-2.57-.89-2.97-2.19h0c-.62-2,.88-4.03,2.97-4.03h1.34-3.36c-1.32,0-2.5-.83-2.94-2.08l-.02-.05c-.71-2.02.79-4.14,2.94-4.14h2.03-4.12c-1.37,0-2.57-.89-2.97-2.2h0c-.74-2.38,1.05-4.8,3.54-4.8h2.87-5.51c-1.41,0-2.64-.95-3.01-2.31h0c-.67-2.51,1.22-4.98,3.82-4.98h17.96c1.79,0,3.58-.05,5.37-.16l20.13-1.22Z"/>
      <polygon class="cls-4" points="61.65 119.52 33.99 140.31 63.62 123.2 61.65 119.52"/>
      <path class="cls-1" d="M183.69,175.44c-.15,0-.29-.02-.43-.02-10.6,0-19.19,8.59-19.19,19.19,0,.4.04.8.06,1.19,10.37-1.66,18.33-10.08,19.56-20.36Z"/>
      <circle class="cls-9" cx="135.84" cy="50.38" r="6.25"/>
      <g>
        <circle class="cls-4" cx="136.24" cy="50.5" r="11.54"/>
        <path class="cls-4" d="M131.47,47.77s-9.34-17.11-21.22-24.83l12.82,2.88s11.58,6.46,16.92,21.19l-8.52.76Z"/>
      </g>
      <polygon class="cls-8" points="51.05 25.24 52.14 33.23 58.92 37.59 50.93 38.69 46.56 45.47 45.47 37.48 38.69 33.11 46.68 32.02 51.05 25.24"/>
      <polygon class="cls-8" points="210.97 113.28 214.51 120.52 222.31 122.56 215.06 126.09 213.03 133.89 209.49 126.65 201.69 124.61 208.94 121.08 210.97 113.28"/>
      <polygon class="cls-8" points="6.24 100.14 8.61 104.46 13.43 105.47 9.11 107.84 8.09 112.66 5.73 108.34 .91 107.32 5.23 104.96 6.24 100.14"/>
      <g>
        <path class="cls-1" d="M214.84,29.3h-35.33c-10.22,0-18.51,8.29-18.51,18.51h0c0,10.23,8.29,18.51,18.51,18.51h.7l-.24,1.3c-.67,3.58-3.16,6.55-6.58,7.81l6.24-.57c3.25-.3,6.18-2.11,7.89-4.89l2.24-3.65h25.08c10.22,0,18.51-8.29,18.51-18.51h0c0-10.23-8.29-18.51-18.51-18.51Z"/>
        <g>
          <path class="cls-12" d="M187.84,55.96h-12.62c-1.66,0-3-1.34-3-3s1.34-3,3-3h12.62c1.66,0,3,1.34,3,3s-1.34,3-3,3Z"/>
          <path class="cls-12" d="M219.11,45.65h-43.89c-1.66,0-3-1.34-3-3s1.34-3,3-3h43.89c1.66,0,3,1.34,3,3s-1.34,3-3,3Z"/>
        </g>
      </g>
    </g>
  </g>
</svg>